<svg xmlns="http://www.w3.org/2000/svg" xmlns:xlink="http://www.w3.org/1999/xlink" fill="none" version="1.1" width="18" height="18" viewBox="0 0 18 18"><defs><clipPath id="master_svg0_105_0326"><rect x="0" y="0" width="18" height="18" rx="0"/></clipPath></defs><g clip-path="url(#master_svg0_105_0326)"><g transform="matrix(1,0,0,-1,0,34.5234375)"><g><path d="M15.75,30.76171875L15.75,26.26171875L15.75,30.76171875L15.75,26.26171875L10.125,26.26171875L10.125,30.76171875L15.75,30.76171875ZM15.75,24.01171875L15.75,19.51171875L15.75,24.01171875L15.75,19.51171875L10.125,19.51171875L10.125,24.01171875L15.75,24.01171875ZM7.875,26.26171875L2.25,26.26171875L7.875,26.26171875L2.25,26.26171875L2.25,30.76171875L7.875,30.76171875L7.875,26.26171875ZM2.25,24.01171875L7.875,24.01171875L2.25,24.01171875L7.875,24.01171875L7.875,19.51171875L2.25,19.51171875L2.25,24.01171875ZM2.25,33.01171875Q1.30078,32.97651875,0.667969,32.34371875Q0.0351562,31.710918749999998,0,30.76171875L0,19.51171875Q0.0351562,18.56249875,0.667969,17.92968775Q1.30078,17.29687495,2.25,17.26171875L15.75,17.26171875Q16.6992,17.29687495,17.332,17.92968775Q17.9648,18.56249875,18,19.51171875L18,30.76171875Q17.9648,31.710918749999998,17.332,32.34371875Q16.6992,32.97651875,15.75,33.01171875L2.25,33.01171875Z" fill="#FFFFFF" fill-opacity="1" style="mix-blend-mode:passthrough"/></g></g></g></svg>