<svg xmlns="http://www.w3.org/2000/svg" xmlns:xlink="http://www.w3.org/1999/xlink" fill="none" version="1.1" width="18" height="15.75" viewBox="0 0 18 15.75"><g transform="matrix(1,0,0,-1,0,31.5)"><g><path d="M15.75,29.25L15.75,24.75L15.75,29.25L15.75,24.75L10.125,24.75L10.125,29.25L15.75,29.25ZM15.75,22.5L15.75,18L15.75,22.5L15.75,18L10.125,18L10.125,22.5L15.75,22.5ZM7.875,24.75L2.25,24.75L7.875,24.75L2.25,24.75L2.25,29.25L7.875,29.25L7.875,24.75ZM2.25,22.5L7.875,22.5L2.25,22.5L7.875,22.5L7.875,18L2.25,18L2.25,22.5ZM2.25,31.5Q1.30078,31.4648,0.667969,30.832Q0.0351562,30.199199999999998,0,29.25L0,18Q0.0351562,17.05078,0.667969,16.417969Q1.30078,15.7851562,2.25,15.75L15.75,15.75Q16.6992,15.7851562,17.332,16.417969Q17.9648,17.05078,18,18L18,29.25Q17.9648,30.199199999999998,17.332,30.832Q16.6992,31.4648,15.75,31.5L2.25,31.5Z" fill="#4B5563" fill-opacity="1" style="mix-blend-mode:passthrough"/></g></g></svg>