<svg xmlns="http://www.w3.org/2000/svg" xmlns:xlink="http://www.w3.org/1999/xlink" fill="none" version="1.1" width="15.74570369720459" height="18" viewBox="0 0 15.74570369720459 18"><g transform="matrix(1,0,0,-1,0,36)"><path d="M7.87285,36Q7.3809,36,7.06465,35.6836Q6.7484,35.3672,6.7484,34.875L6.7484,34.207Q4.7806,33.7852,3.55073,32.2734Q2.28572,30.761699999999998,2.25058,28.6875L2.25058,28.0195Q2.21544,25.48828,0.5639,23.55469L0.282787,23.23828Q-0.174023,22.71094,0.107091,22.04297Q0.423344,21.41016,1.12613,21.375L14.6196,21.375Q15.3224,21.41016,15.6386,22.04297Q15.9197,22.71094,15.4629,23.23828L15.2169,23.55469Q13.5303,25.45312,13.4951,28.0195L13.4951,28.6875Q13.46,30.761699999999998,12.195,32.2734Q10.9651,33.7852,8.99731,34.207L8.99731,34.875Q8.99731,35.3672,8.68105,35.6836Q8.3648,36,7.87285,36ZM9.45412,18.667969Q10.1218,19.33594,10.1218,20.25L7.87285,20.25L5.62394,20.25Q5.62394,19.33594,6.29159,18.667969Q6.95923,18,7.87285,18Q8.78647,18,9.45412,18.667969Z" fill="#FFFFFF" fill-opacity="1" style="mix-blend-mode:passthrough"/></g></svg>