<svg xmlns="http://www.w3.org/2000/svg" xmlns:xlink="http://www.w3.org/1999/xlink" fill="none" version="1.1" width="16.09375" height="18" viewBox="0 0 16.09375 18"><defs><clipPath id="master_svg0_105_0336"><rect x="0" y="0" width="16.09375" height="18" rx="0"/></clipPath></defs><g clip-path="url(#master_svg0_105_0336)"><g transform="matrix(1,0,0,-1,0,36.77345657348633)"><g><path d="M8.046872674560547,36.386728286743164Q7.5549226745605464,36.386728286743164,7.238672674560547,36.07032828674316Q6.922422674560547,35.75392828674316,6.922422674560547,35.261728286743164L6.922422674560547,34.593728286743165Q4.954622674560547,34.17192828674317,3.724752674560547,32.660128286743166Q2.459742674560547,31.14842828674316,2.4246026745605467,29.074228286743164L2.4246026745605467,28.406228286743165Q2.389462674560547,25.875008286743164,0.7379226745605468,23.941418286743165L0.4568096745605469,23.625008286743164Q-3.2543945313601164e-7,23.097668286743165,0.28111367456054687,22.429698286743164Q0.5973666745605468,21.796888286743165,1.300152674560547,21.761728286743164L14.793622674560547,21.761728286743164Q15.496422674560547,21.796888286743165,15.812622674560547,22.429698286743164Q16.093722674560546,23.097668286743165,15.636922674560546,23.625008286743164L15.390922674560548,23.941418286743165Q13.704322674560547,25.839848286743162,13.669122674560548,28.406228286743165L13.669122674560548,29.074228286743164Q13.634022674560548,31.14842828674316,12.369022674560547,32.660128286743166Q11.139122674560546,34.17192828674317,9.171332674560547,34.593728286743165L9.171332674560547,35.261728286743164Q9.171332674560547,35.75392828674316,8.855072674560548,36.07032828674316Q8.538822674560548,36.386728286743164,8.046872674560547,36.386728286743164ZM9.628142674560547,19.054697286743163Q10.295822674560547,19.722668286743165,10.295822674560547,20.636728286743164L8.046872674560547,20.636728286743164L5.797962674560547,20.636728286743164Q5.797962674560547,19.722668286743165,6.465612674560547,19.054697286743163Q7.133252674560547,18.386728286743164,8.046872674560547,18.386728286743164Q8.960492674560546,18.386728286743164,9.628142674560547,19.054697286743163Z" fill="#4B5563" fill-opacity="1" style="mix-blend-mode:passthrough"/></g></g></g></svg>