<svg width="206" height="38" viewBox="0 0 206 38" fill="none" xmlns="http://www.w3.org/2000/svg">
<path d="M21.48 37.8L17.88 32.96C16.8133 33.1733 15.7733 33.28 14.76 33.28C12.12 33.28 9.69333 32.6667 7.48 31.44C5.29333 30.2133 3.54667 28.5067 2.24 26.32C0.96 24.1067 0.32 21.6267 0.32 18.88C0.32 16.1333 0.96 13.6667 2.24 11.48C3.54667 9.29333 5.29333 7.58667 7.48 6.36C9.69333 5.13333 12.12 4.52 14.76 4.52C17.4 4.52 19.8133 5.13333 22 6.36C24.2133 7.58667 25.9467 9.29333 27.2 11.48C28.48 13.6667 29.12 16.1333 29.12 18.88C29.12 21.28 28.6267 23.48 27.64 25.48C26.68 27.4533 25.3333 29.0933 23.6 30.4L29.76 37.8H21.48ZM7.32 18.88C7.32 21.36 7.98667 23.3467 9.32 24.84C10.68 26.3067 12.4933 27.04 14.76 27.04C17 27.04 18.7867 26.2933 20.12 24.8C21.48 23.3067 22.16 21.3333 22.16 18.88C22.16 16.4 21.48 14.4267 20.12 12.96C18.7867 11.4667 17 10.72 14.76 10.72C12.4933 10.72 10.68 11.4533 9.32 12.92C7.98667 14.3867 7.32 16.3733 7.32 18.88ZM55.0434 10.68V33H48.2034V29.96C47.5101 30.9467 46.5634 31.7467 45.3634 32.36C44.1901 32.9467 42.8834 33.24 41.4434 33.24C39.7368 33.24 38.2301 32.8667 36.9234 32.12C35.6168 31.3467 34.6034 30.24 33.8834 28.8C33.1634 27.36 32.8034 25.6667 32.8034 23.72V10.68H39.6034V22.8C39.6034 24.2933 39.9901 25.4533 40.7634 26.28C41.5368 27.1067 42.5768 27.52 43.8834 27.52C45.2168 27.52 46.2701 27.1067 47.0434 26.28C47.8168 25.4533 48.2034 24.2933 48.2034 22.8V10.68H55.0434ZM80.9966 21.48C80.9966 22.12 80.9566 22.7867 80.8766 23.48H65.3966C65.5032 24.8667 65.9432 25.9333 66.7166 26.68C67.5166 27.4 68.4899 27.76 69.6366 27.76C71.3432 27.76 72.5299 27.04 73.1966 25.6H80.4766C80.1032 27.0667 79.4232 28.3867 78.4366 29.56C77.4766 30.7333 76.2632 31.6533 74.7966 32.32C73.3299 32.9867 71.6899 33.32 69.8766 33.32C67.6899 33.32 65.7432 32.8533 64.0366 31.92C62.3299 30.9867 60.9966 29.6533 60.0366 27.92C59.0766 26.1867 58.5966 24.16 58.5966 21.84C58.5966 19.52 59.0632 17.4933 59.9966 15.76C60.9566 14.0267 62.2899 12.6933 63.9966 11.76C65.7032 10.8267 67.6632 10.36 69.8766 10.36C72.0366 10.36 73.9566 10.8133 75.6366 11.72C77.3166 12.6267 78.6232 13.92 79.5566 15.6C80.5166 17.28 80.9966 19.24 80.9966 21.48ZM73.9966 19.68C73.9966 18.5067 73.5966 17.5733 72.7966 16.88C71.9966 16.1867 70.9966 15.84 69.7966 15.84C68.6499 15.84 67.6766 16.1733 66.8766 16.84C66.1032 17.5067 65.6232 18.4533 65.4366 19.68H73.9966ZM93.685 33.32C91.7383 33.32 90.005 32.9867 88.485 32.32C86.965 31.6533 85.765 30.7467 84.885 29.6C84.005 28.4267 83.5117 27.12 83.405 25.68H90.165C90.245 26.4533 90.605 27.08 91.245 27.56C91.885 28.04 92.6717 28.28 93.605 28.28C94.4583 28.28 95.1117 28.12 95.565 27.8C96.045 27.4533 96.285 27.0133 96.285 26.48C96.285 25.84 95.9517 25.3733 95.285 25.08C94.6183 24.76 93.5383 24.4133 92.045 24.04C90.445 23.6667 89.1117 23.28 88.045 22.88C86.9783 22.4533 86.0583 21.8 85.285 20.92C84.5117 20.0133 84.125 18.8 84.125 17.28C84.125 16 84.4717 14.84 85.165 13.8C85.885 12.7333 86.925 11.8933 88.285 11.28C89.6717 10.6667 91.3117 10.36 93.205 10.36C96.005 10.36 98.205 11.0533 99.805 12.44C101.432 13.8267 102.365 15.6667 102.605 17.96H96.285C96.1783 17.1867 95.8317 16.5733 95.245 16.12C94.685 15.6667 93.9383 15.44 93.005 15.44C92.205 15.44 91.5917 15.6 91.165 15.92C90.7383 16.2133 90.525 16.6267 90.525 17.16C90.525 17.8 90.8583 18.28 91.525 18.6C92.2183 18.92 93.285 19.24 94.725 19.56C96.3783 19.9867 97.725 20.4133 98.765 20.84C99.805 21.24 100.712 21.9067 101.485 22.84C102.285 23.7467 102.698 24.9733 102.725 26.52C102.725 27.8267 102.352 29 101.605 30.04C100.885 31.0533 99.8317 31.8533 98.445 32.44C97.085 33.0267 95.4983 33.32 93.685 33.32ZM119.35 27.2V33H115.87C113.39 33 111.456 32.4 110.07 31.2C108.683 29.9733 107.99 27.9867 107.99 25.24V16.36H105.27V10.68H107.99V5.24H114.83V10.68H119.31V16.36H114.83V25.32C114.83 25.9867 114.99 26.4667 115.31 26.76C115.63 27.0533 116.163 27.2 116.91 27.2H119.35ZM126.6 8.36C125.4 8.36 124.413 8.01333 123.64 7.32C122.893 6.6 122.52 5.72 122.52 4.68C122.52 3.61333 122.893 2.73333 123.64 2.04C124.413 1.32 125.4 0.959998 126.6 0.959998C127.773 0.959998 128.733 1.32 129.48 2.04C130.253 2.73333 130.64 3.61333 130.64 4.68C130.64 5.72 130.253 6.6 129.48 7.32C128.733 8.01333 127.773 8.36 126.6 8.36ZM130 10.68V33H123.16V10.68H130ZM145.117 33.32C142.93 33.32 140.957 32.8533 139.197 31.92C137.463 30.9867 136.09 29.6533 135.077 27.92C134.09 26.1867 133.597 24.16 133.597 21.84C133.597 19.5467 134.103 17.5333 135.117 15.8C136.13 14.04 137.517 12.6933 139.277 11.76C141.037 10.8267 143.01 10.36 145.197 10.36C147.383 10.36 149.357 10.8267 151.117 11.76C152.877 12.6933 154.263 14.04 155.277 15.8C156.29 17.5333 156.797 19.5467 156.797 21.84C156.797 24.1333 156.277 26.16 155.237 27.92C154.223 29.6533 152.823 30.9867 151.037 31.92C149.277 32.8533 147.303 33.32 145.117 33.32ZM145.117 27.4C146.423 27.4 147.53 26.92 148.437 25.96C149.37 25 149.837 23.6267 149.837 21.84C149.837 20.0533 149.383 18.68 148.477 17.72C147.597 16.76 146.503 16.28 145.197 16.28C143.863 16.28 142.757 16.76 141.877 17.72C140.997 18.6533 140.557 20.0267 140.557 21.84C140.557 23.6267 140.983 25 141.837 25.96C142.717 26.92 143.81 27.4 145.117 27.4ZM174.025 10.44C176.639 10.44 178.719 11.2933 180.265 13C181.839 14.68 182.625 17 182.625 19.96V33H175.825V20.88C175.825 19.3867 175.439 18.2267 174.665 17.4C173.892 16.5733 172.852 16.16 171.545 16.16C170.239 16.16 169.199 16.5733 168.425 17.4C167.652 18.2267 167.265 19.3867 167.265 20.88V33H160.425V10.68H167.265V13.64C167.959 12.6533 168.892 11.88 170.065 11.32C171.239 10.7333 172.559 10.44 174.025 10.44ZM194.455 10.16V3.8H205.535V33H198.415V10.16H194.455Z" fill="#9747FF"/>
</svg>
