<svg xmlns="http://www.w3.org/2000/svg" xmlns:xlink="http://www.w3.org/1999/xlink" fill="none" version="1.1" width="18" height="18" viewBox="0 0 18 18"><defs><clipPath id="master_svg0_105_0331"><rect x="0" y="0" width="18" height="18" rx="0"/></clipPath></defs><g clip-path="url(#master_svg0_105_0331)"><g transform="matrix(1,0,0,-1,0,36.7734375)"><g><path d="M9,34.69921875Q5.90625,34.62891875,3.83203,32.55471875Q1.75781,30.48051875,1.6875,27.38671875L1.6875,25.98046875Q1.61719,25.20702875,0.84375,25.13671875Q0.0703125,25.20702875,0,25.98046875L0,27.38671875Q0.0351562,29.91791875,1.23047,31.92191875Q2.42578,33.96091875,4.46484,35.15621875Q6.46875,36.35151875,9,36.38671875Q11.5312,36.35151875,13.5352,35.15621875Q15.5742,33.96091875,16.7695,31.92191875Q17.9648,29.91791875,18,27.38671875L18,22.32421875Q17.9648,21.02343875,17.0859,20.14452875Q16.207,19.26562475,14.9062,19.23046875L11.0391,19.23046875Q10.5469,18.42187495,9.5625,18.38671875L8.4375,18.38671875Q7.73438,18.42187495,7.24219,18.87890675Q6.78516,19.37109375,6.75,20.07421875Q6.78516,20.77733875,7.24219,21.26952875Q7.73438,21.72655875,8.4375,21.76171875L9.5625,21.76171875Q10.5469,21.72655875,11.0391,20.91796875L14.9062,20.91796875Q15.5039,20.91796875,15.8906,21.33983875Q16.3125,21.72655875,16.3125,22.32421875L16.3125,27.38671875Q16.2422,30.48051875,14.168,32.55471875Q12.0938,34.62891875,9,34.69921875ZM5.0625,29.07421875L5.625,29.07421875L5.0625,29.07421875L5.625,29.07421875Q6.11719,29.07421875,6.43359,28.75781875Q6.75,28.44141875,6.75,27.94921875L6.75,24.01171875Q6.75,23.51952875,6.43359,23.20312875Q6.11719,22.88671875,5.625,22.88671875L5.0625,22.88671875Q4.11328,22.92187875,3.48047,23.55468875Q2.84766,24.18749875,2.8125,25.13671875L2.8125,26.82421875Q2.84766,27.77343875,3.48047,28.40621875Q4.11328,29.03901875,5.0625,29.07421875ZM12.9375,29.07421875Q13.8867,29.03901875,14.5195,28.40621875Q15.1523,27.77343875,15.1875,26.82421875L15.1875,25.13671875Q15.1523,24.18749875,14.5195,23.55468875Q13.8867,22.92187875,12.9375,22.88671875L12.375,22.88671875Q11.8828,22.88671875,11.5664,23.20312875Q11.25,23.51952875,11.25,24.01171875L11.25,27.94921875Q11.25,28.44141875,11.5664,28.75781875Q11.8828,29.07421875,12.375,29.07421875L12.9375,29.07421875Z" fill="#FFFFFF" fill-opacity="1" style="mix-blend-mode:passthrough"/></g></g></g></svg>