<svg xmlns="http://www.w3.org/2000/svg" xmlns:xlink="http://www.w3.org/1999/xlink" fill="none" version="1.1" width="18" height="18" viewBox="0 0 18 18"><g transform="matrix(1,0,0,-1,0,36)"><g><path d="M9,34.3125Q5.90625,34.2422,3.83203,32.168Q1.75781,30.0938,1.6875,27L1.6875,25.59375Q1.61719,24.82031,0.84375,24.75Q0.0703125,24.82031,0,25.59375L0,27Q0.0351562,29.5312,1.23047,31.5352Q2.42578,33.5742,4.46484,34.7695Q6.46875,35.9648,9,36Q11.5312,35.9648,13.5352,34.7695Q15.5742,33.5742,16.7695,31.5352Q17.9648,29.5312,18,27L18,21.9375Q17.9648,20.63672,17.0859,19.75781Q16.207,18.878906,14.9062,18.84375L11.0391,18.84375Q10.5469,18.0351562,9.5625,18L8.4375,18Q7.73438,18.0351562,7.24219,18.492188Q6.78516,18.984375,6.75,19.6875Q6.78516,20.39062,7.24219,20.88281Q7.73438,21.33984,8.4375,21.375L9.5625,21.375Q10.5469,21.33984,11.0391,20.53125L14.9062,20.53125Q15.5039,20.53125,15.8906,20.95312Q16.3125,21.33984,16.3125,21.9375L16.3125,27Q16.2422,30.0938,14.168,32.168Q12.0938,34.2422,9,34.3125ZM5.0625,28.6875L5.625,28.6875L5.0625,28.6875L5.625,28.6875Q6.11719,28.6875,6.43359,28.3711Q6.75,28.0547,6.75,27.5625L6.75,23.625Q6.75,23.13281,6.43359,22.81641Q6.11719,22.5,5.625,22.5L5.0625,22.5Q4.11328,22.53516,3.48047,23.16797Q2.84766,23.80078,2.8125,24.75L2.8125,26.4375Q2.84766,27.38672,3.48047,28.0195Q4.11328,28.6523,5.0625,28.6875ZM12.9375,28.6875Q13.8867,28.6523,14.5195,28.0195Q15.1523,27.38672,15.1875,26.4375L15.1875,24.75Q15.1523,23.80078,14.5195,23.16797Q13.8867,22.53516,12.9375,22.5L12.375,22.5Q11.8828,22.5,11.5664,22.81641Q11.25,23.13281,11.25,23.625L11.25,27.5625Q11.25,28.0547,11.5664,28.3711Q11.8828,28.6875,12.375,28.6875L12.9375,28.6875Z" fill="#4B5563" fill-opacity="1" style="mix-blend-mode:passthrough"/></g></g></svg>