<svg xmlns="http://www.w3.org/2000/svg" xmlns:xlink="http://www.w3.org/1999/xlink" fill="none" version="1.1" width="12.000469207763672" height="12" viewBox="0 0 12.000469207763672 12"><g transform="matrix(1,0,0,-1,0,24)"><path d="M6,12Q7.64062,12.0234375,9,12.796875Q10.3594,13.59375,11.2031,15Q12,16.42969,12,18Q12,19.57031,11.2031,21Q10.3594,22.4062,9,23.2031Q7.64062,23.976599999999998,6,24Q4.35938,23.976599999999998,3,23.2031Q1.64062,22.4062,0.796875,21Q0,19.57031,0,18C0,16.42969,-0.046875,16.40625,0.796875,15Q1.64062,13.59375,3,12.796875Q4.35938,12.0234375,6,12Z" fill="#166534" fill-opacity="1" style="mix-blend-mode:passthrough"/></g></svg>